<svg xmlns="http://www.w3.org/2000/svg" version="1.1" xmlns:xlink="http://www.w3.org/1999/xlink" xmlns:svgjs="http://svgjs.dev/svgjs" width="128" height="128" viewBox="0 0 128 128"><g transform="matrix(0.8046875,0,0,0.8046875,12.683225590821074,9.55829967105263)"><svg viewBox="0 0 89 95" data-background-color="#282634" preserveAspectRatio="xMidYMid meet" height="136" width="128" xmlns="http://www.w3.org/2000/svg" xmlns:xlink="http://www.w3.org/1999/xlink"><g id="tight-bounds" transform="matrix(1,0,0,1,-0.15832114158325794,-0.24049999999999727)"><svg viewBox="0 0 89.31664228316653 95.481" height="95.481" width="89.31664228316653"><g><svg viewBox="0 0 89.31664228316653 95.481" height="95.481" width="89.31664228316653"><g><svg viewBox="0 0 89.31664228316653 95.481" height="95.481" width="89.31664228316653"><g><svg viewBox="0 0 89.31664228316653 95.481" height="95.481" width="89.31664228316653"><g><svg viewBox="0 0 89.31664228316653 95.481" height="95.481" width="89.31664228316653"><g><svg viewBox="0 0 89.31664228316653 95.481" height="95.481" width="89.31664228316653"><g><svg xmlns="http://www.w3.org/2000/svg" xmlns:xlink="http://www.w3.org/1999/xlink" version="1.1" x="0" y="0" viewBox="3.002787763467867 1 57.997212236532135 62" style="enable-background:new 0 0 64 64;" xml:space="preserve" height="95.481" width="89.31664228316653" class="icon-icon-0" data-fill-palette-color="accent" id="icon-0"><g fill="#39cccc" data-fill-palette-color="accent"><g fill="#39cccc" data-fill-palette-color="accent"><path d="M30 19H10v-6h20V19zM12 17h16v-2H12V17z" fill="#ffffff" data-fill-palette-color="accent"></path></g><g fill="#39cccc" data-fill-palette-color="accent"><path d="M20 57c-2.757 0-5-2.243-5-5V42c0-2.757 2.243-5 5-5s5 2.243 5 5v10C25 54.757 22.757 57 20 57zM20 39c-1.654 0-3 1.346-3 3v10c0 1.654 1.346 3 3 3s3-1.346 3-3V42C23 40.346 21.654 39 20 39z" fill="#ffffff" data-fill-palette-color="accent"></path></g><g fill="#39cccc" data-fill-palette-color="accent"><rect x="16" y="46" width="8" height="2" fill="#ffffff" data-fill-palette-color="accent"></rect></g><g fill="#39cccc" data-fill-palette-color="accent"><path d="M15 11c-1.654 0-3-1.346-3-3s1.346-3 3-3 3 1.346 3 3S16.654 11 15 11zM15 7c-0.551 0-1 0.448-1 1s0.449 1 1 1 1-0.448 1-1S15.551 7 15 7z" fill="#ffffff" data-fill-palette-color="accent"></path></g><g fill="#39cccc" data-fill-palette-color="accent"><path d="M22 7c-1.654 0-3-1.346-3-3s1.346-3 3-3 3 1.346 3 3S23.654 7 22 7zM22 3c-0.551 0-1 0.448-1 1s0.449 1 1 1 1-0.448 1-1S22.551 3 22 3z" fill="#ffffff" data-fill-palette-color="accent"></path></g><g fill="#39cccc" data-fill-palette-color="accent"><path d="M30 11c-1.654 0-3-1.346-3-3s1.346-3 3-3 3 1.346 3 3S31.654 11 30 11zM30 7c-0.551 0-1 0.448-1 1s0.449 1 1 1 1-0.448 1-1S30.551 7 30 7z" fill="#ffffff" data-fill-palette-color="accent"></path></g><g fill="#39cccc" data-fill-palette-color="accent"><path d="M39 9c-1.654 0-3-1.346-3-3s1.346-3 3-3 3 1.346 3 3S40.654 9 39 9zM39 5c-0.551 0-1 0.448-1 1s0.449 1 1 1 1-0.448 1-1S39.551 5 39 5z" fill="#ffffff" data-fill-palette-color="accent"></path></g><g fill="#39cccc" data-fill-palette-color="accent"><path d="M58 39H32c-1.654 0-3-1.346-3-3v-2c0-1.654 1.346-3 3-3h26c1.654 0 3 1.346 3 3v2C61 37.654 59.654 39 58 39zM32 33c-0.551 0-1 0.448-1 1v2c0 0.552 0.449 1 1 1h26c0.551 0 1-0.448 1-1v-2c0-0.552-0.449-1-1-1H32z" fill="#ffffff" data-fill-palette-color="accent"></path></g><g fill="#39cccc" data-fill-palette-color="accent"><path d="M54 63H36c-2.757 0-5-2.243-5-5V38h2v20c0 1.654 1.346 3 3 3h18c1.654 0 3-1.346 3-3V38h2v20C59 60.757 56.757 63 54 63z" fill="#ffffff" data-fill-palette-color="accent"></path></g><g fill="#39cccc" data-fill-palette-color="accent"><path d="M55 59H35V41h20V59zM37 57h16V43H37V57z" fill="#ffffff" data-fill-palette-color="accent"></path></g><g fill="#39cccc" data-fill-palette-color="accent"><path d="M45 55c-3.309 0-6-2.243-6-5s2.691-5 6-5 6 2.243 6 5S48.309 55 45 55zM45 47c-2.206 0-4 1.346-4 3s1.794 3 4 3 4-1.346 4-3S47.206 47 45 47z" fill="#ffffff" data-fill-palette-color="accent"></path></g><g fill="#39cccc" data-fill-palette-color="accent"><rect x="40" y="49" width="10" height="2" fill="#ffffff" data-fill-palette-color="accent"></rect></g><g fill="#39cccc" data-fill-palette-color="accent"><path d="M20 62.998c-0.763 0-1.525-0.049-2.265-0.146-7.59-0.982-13.587-6.968-14.584-14.557-0.83-6.316 1.868-12.514 7.04-16.171C12.576 30.438 14 27.794 14 25.053V18h2v7.053c0 3.39-1.74 6.644-4.654 8.705-4.564 3.228-6.945 8.699-6.212 14.278 0.865 6.584 6.272 11.981 12.858 12.833 1.311 0.172 2.706 0.171 4.015 0.001 3.544-0.459 6.826-2.22 9.243-4.958l1.499 1.324c-2.737 3.102-6.461 5.096-10.485 5.617C21.525 62.949 20.763 62.998 20 62.998z" fill="#ffffff" data-fill-palette-color="accent"></path></g><g fill="#39cccc" data-fill-palette-color="accent"><path d="M29.422 34.34c-0.25-0.202-0.505-0.396-0.768-0.582C25.74 31.696 24 28.442 24 25.053V18h2v7.053c0 2.741 1.424 5.386 3.809 7.072 0.298 0.211 0.588 0.431 0.872 0.66L29.422 34.34z" fill="#ffffff" data-fill-palette-color="accent"></path></g><g fill="#39cccc" data-fill-palette-color="accent"><path d="M25 25c-2.983 0-5.007-0.689-6.633-1.243C17.174 23.351 16.144 23 15 23v-2c1.475 0 2.708 0.42 4.012 0.864C20.576 22.396 22.348 23 25 23V25z" fill="#ffffff" data-fill-palette-color="accent"></path></g></g></svg></g></svg></g></svg></g></svg></g></svg></g></svg></g><defs></defs></svg><rect width="89.31664228316653" height="95.481" fill="none" stroke="none" visibility="hidden"></rect></g></svg></g></svg>