<svg xmlns="http://www.w3.org/2000/svg" version="1.1" xmlns:xlink="http://www.w3.org/1999/xlink" xmlns:svgjs="http://svgjs.dev/svgjs" width="1000" height="239" viewBox="0 0 1000 239"><g transform="matrix(1,0,0,1,-0.6060606060606233,-0.041901808279291686)"><svg viewBox="0 0 396 95" data-background-color="#282634" preserveAspectRatio="xMidYMid meet" height="239" width="1000" xmlns="http://www.w3.org/2000/svg" xmlns:xlink="http://www.w3.org/1999/xlink"><g id="tight-bounds" transform="matrix(1,0,0,1,0.2400000000000091,0.016655530487582837)"><svg viewBox="0 0 395.52 94.96641232372369" height="94.96641232372369" width="395.52"><g><svg viewBox="0 0 555.5548416969136 133.39161146093787" height="94.96641232372369" width="395.52"><g transform="matrix(1,0,0,1,160.0348416969136,38.48113096897717)"><svg viewBox="0 0 395.52 56.42934952298353" height="56.42934952298353" width="395.52"><g><svg viewBox="0 0 395.52 56.42934952298353" height="56.42934952298353" width="395.52"><g><svg viewBox="0 0 395.52 56.42934952298353" height="56.42934952298353" width="395.52"><g transform="matrix(1,0,0,1,0,0)"><svg width="395.52" viewBox="4.300000190734863 -32.45000076293945 230.5800018310547 32.900001525878906" height="56.42934952298353" data-palette-color="#39cccc"><path d="M16.5-32.3Q23.4-32.3 27.1-28.4 30.8-24.5 30.8-17.2L30.8-17.2Q30.8-8.75 26.75-4.23 22.7 0.3 15.1 0.3L15.1 0.3Q12.95 0.3 9.95 0.23 6.95 0.15 4.35 0L4.35 0 4.3 0 4.65-9.65 4.3-32.1 4.35-32.1 16.5-32.3ZM16-3.8Q20.6-3.8 23.03-6.85 25.45-9.9 25.45-16.05L25.45-16.05Q25.45-22.25 23.13-25.18 20.8-28.1 16.1-28.1L16.1-28.1Q13.35-28.1 9.55-27.9L9.55-27.9 9.3-10.1 9.45-4.15Q11.25-4 13.05-3.9 14.85-3.8 16-3.8L16-3.8ZM51.4-12.85Q54.8-7.4 59.45-1.2L59.45-1.2 59.4-0.6Q57 0.2 54.45 0.45L54.45 0.45 53.85 0.05Q49.7-6.75 47.15-11.45L47.15-11.45 41.7-11.45 41.7-10.1 41.95 0 36.7 0 37.05-9.65 36.7-32.1 47.6-32.15Q52.45-32.15 55.1-29.73 57.75-27.3 57.75-22.8L57.75-22.8Q57.75-19.6 56.07-17.03 54.4-14.45 51.4-12.85L51.4-12.85ZM41.95-27.95L41.8-15.65 47.3-15.5Q52.35-17.05 52.35-22.4L52.35-22.4Q52.35-25.2 50.82-26.6 49.3-28 46.2-28.1L46.2-28.1 41.95-27.95ZM88.15-32.1L88-15.8 87.95-12Q88.05-6.1 84.75-2.85 81.45 0.4 75.4 0.4L75.4 0.4Q69.55 0.4 66.45-2.73 63.35-5.85 63.45-11.6L63.45-11.6 63.55-16.05 63.45-32.1 68.55-32.1 68.34-12.3Q68.3-8.1 70.15-6.05 72-4 75.75-4L75.75-4Q83.25-4 83.2-11.8L83.2-11.8 82.95-32.1 88.15-32.1ZM109.34-32.45Q114.39-32.45 118.74-30.3L118.74-30.3 117.69-25.5 117.14-25.45Q114.69-26.9 112.69-27.53 110.69-28.15 108.49-28.15L108.49-28.15Q103.49-28.15 101.04-25.13 98.59-22.1 98.59-15.6L98.59-15.6Q98.59-9.4 100.89-6.63 103.19-3.85 108.19-3.85L108.19-3.85Q109.44-3.85 110.67-4.08 111.89-4.3 113.74-4.85L113.74-4.85 113.89-8.1 113.74-13.05 118.59-13.4 118.49-8.9 118.64-1.55Q112.44 0.4 107.89 0.4L107.89 0.4Q100.54 0.4 96.89-3.68 93.24-7.75 93.24-15.35L93.24-15.35Q93.24-23.65 97.42-28.05 101.59-32.45 109.34-32.45L109.34-32.45ZM149.94-32.1L138.59 0 132.49 0 122.09-32.1 127.39-32.1 128.14-28.45 135.49-5 135.84-5 143.99-28.2 144.79-32.1 149.94-32.1ZM165.64-4.15L173.39-4.4 173.69-3.95 173.34 0 154.39 0 154.74-9.65 154.39-32.1 173.44-32.1 173.74-31.65 173.34-27.7 165.74-27.9 159.64-27.85 159.49-18.5 165.29-18.4 170.59-18.55 170.94-18.15 170.54-14.2 164.89-14.35 159.44-14.25 159.39-10.1 159.54-4.2 165.64-4.15ZM191.24-32.3Q198.14-32.3 201.84-28.4 205.54-24.5 205.54-17.2L205.54-17.2Q205.54-8.75 201.49-4.23 197.44 0.3 189.84 0.3L189.84 0.3Q187.69 0.3 184.69 0.23 181.69 0.15 179.09 0L179.09 0 179.04 0 179.39-9.65 179.04-32.1 179.09-32.1 191.24-32.3ZM190.74-3.8Q195.34-3.8 197.76-6.85 200.19-9.9 200.19-16.05L200.19-16.05Q200.19-22.25 197.86-25.18 195.54-28.1 190.84-28.1L190.84-28.1Q188.09-28.1 184.29-27.9L184.29-27.9 184.04-10.1 184.19-4.15Q185.99-4 187.79-3.9 189.59-3.8 190.74-3.8L190.74-3.8ZM224.53-32.1L234.88 0 229.58 0 228.83-3.6 227.43-8.05 220.63-8.2 214.48-8.05 212.98-3.85 212.18 0 207.03 0 218.48-32.1 224.53-32.1ZM220.98-12.15L226.13-12.25 221.53-27.05 221.18-27.05 215.93-12.25 220.98-12.15Z" opacity="1" transform="matrix(1,0,0,1,0,0)" fill="#39cccc" class="undefined-text-0" data-fill-palette-color="primary" id="text-0"></path></svg></g></svg></g></svg></g></svg></g><g><svg viewBox="0 0 133.39161146093787 133.39161146093787" height="133.39161146093787" width="133.39161146093787"><g><svg></svg></g><g id="icon-0"><svg viewBox="0 0 133.39161146093787 133.39161146093787" height="133.39161146093787" width="133.39161146093787"><g><path d="M0 66.696c0-36.835 29.861-66.696 66.696-66.696 36.835 0 66.696 29.861 66.696 66.696 0 36.835-29.861 66.696-66.696 66.696-36.835 0-66.696-29.861-66.696-66.696zM66.696 128.303c34.025 0 61.607-27.582 61.607-61.607 0-34.025-27.582-61.607-61.607-61.607-34.025 0-61.607 27.582-61.607 61.607 0 34.025 27.582 61.607 61.607 61.607z" data-fill-palette-color="accent" fill="#39cccc" stroke="transparent"></path></g><g transform="matrix(1,0,0,1,34.02958953422552,31.77506810684769)"><svg viewBox="0 0 65.33243239248682 69.84147524724249" height="69.84147524724249" width="65.33243239248682"><g><svg xmlns="http://www.w3.org/2000/svg" xmlns:xlink="http://www.w3.org/1999/xlink" version="1.1" x="0" y="0" viewBox="3.002788782119751 1 57.99721145629883 62" style="enable-background:new 0 0 64 64;" xml:space="preserve" height="69.84147524724249" width="65.33243239248682" class="icon-a-0" data-fill-palette-color="accent" id="a-0"><g fill="#39cccc" data-fill-palette-color="accent"><g fill="#39cccc" data-fill-palette-color="accent"><path d="M30 19H10v-6h20V19zM12 17h16v-2H12V17z" fill="#39cccc" data-fill-palette-color="accent"></path></g><g fill="#39cccc" data-fill-palette-color="accent"><path d="M20 57c-2.757 0-5-2.243-5-5V42c0-2.757 2.243-5 5-5s5 2.243 5 5v10C25 54.757 22.757 57 20 57zM20 39c-1.654 0-3 1.346-3 3v10c0 1.654 1.346 3 3 3s3-1.346 3-3V42C23 40.346 21.654 39 20 39z" fill="#39cccc" data-fill-palette-color="accent"></path></g><g fill="#39cccc" data-fill-palette-color="accent"><rect x="16" y="46" width="8" height="2" fill="#39cccc" data-fill-palette-color="accent"></rect></g><g fill="#39cccc" data-fill-palette-color="accent"><path d="M15 11c-1.654 0-3-1.346-3-3s1.346-3 3-3 3 1.346 3 3S16.654 11 15 11zM15 7c-0.551 0-1 0.448-1 1s0.449 1 1 1 1-0.448 1-1S15.551 7 15 7z" fill="#39cccc" data-fill-palette-color="accent"></path></g><g fill="#39cccc" data-fill-palette-color="accent"><path d="M22 7c-1.654 0-3-1.346-3-3s1.346-3 3-3 3 1.346 3 3S23.654 7 22 7zM22 3c-0.551 0-1 0.448-1 1s0.449 1 1 1 1-0.448 1-1S22.551 3 22 3z" fill="#39cccc" data-fill-palette-color="accent"></path></g><g fill="#39cccc" data-fill-palette-color="accent"><path d="M30 11c-1.654 0-3-1.346-3-3s1.346-3 3-3 3 1.346 3 3S31.654 11 30 11zM30 7c-0.551 0-1 0.448-1 1s0.449 1 1 1 1-0.448 1-1S30.551 7 30 7z" fill="#39cccc" data-fill-palette-color="accent"></path></g><g fill="#39cccc" data-fill-palette-color="accent"><path d="M39 9c-1.654 0-3-1.346-3-3s1.346-3 3-3 3 1.346 3 3S40.654 9 39 9zM39 5c-0.551 0-1 0.448-1 1s0.449 1 1 1 1-0.448 1-1S39.551 5 39 5z" fill="#39cccc" data-fill-palette-color="accent"></path></g><g fill="#39cccc" data-fill-palette-color="accent"><path d="M58 39H32c-1.654 0-3-1.346-3-3v-2c0-1.654 1.346-3 3-3h26c1.654 0 3 1.346 3 3v2C61 37.654 59.654 39 58 39zM32 33c-0.551 0-1 0.448-1 1v2c0 0.552 0.449 1 1 1h26c0.551 0 1-0.448 1-1v-2c0-0.552-0.449-1-1-1H32z" fill="#39cccc" data-fill-palette-color="accent"></path></g><g fill="#39cccc" data-fill-palette-color="accent"><path d="M54 63H36c-2.757 0-5-2.243-5-5V38h2v20c0 1.654 1.346 3 3 3h18c1.654 0 3-1.346 3-3V38h2v20C59 60.757 56.757 63 54 63z" fill="#39cccc" data-fill-palette-color="accent"></path></g><g fill="#39cccc" data-fill-palette-color="accent"><path d="M55 59H35V41h20V59zM37 57h16V43H37V57z" fill="#39cccc" data-fill-palette-color="accent"></path></g><g fill="#39cccc" data-fill-palette-color="accent"><path d="M45 55c-3.309 0-6-2.243-6-5s2.691-5 6-5 6 2.243 6 5S48.309 55 45 55zM45 47c-2.206 0-4 1.346-4 3s1.794 3 4 3 4-1.346 4-3S47.206 47 45 47z" fill="#39cccc" data-fill-palette-color="accent"></path></g><g fill="#39cccc" data-fill-palette-color="accent"><rect x="40" y="49" width="10" height="2" fill="#39cccc" data-fill-palette-color="accent"></rect></g><g fill="#39cccc" data-fill-palette-color="accent"><path d="M20 62.998c-0.763 0-1.525-0.049-2.265-0.146-7.59-0.982-13.587-6.968-14.584-14.557-0.83-6.316 1.868-12.514 7.04-16.171C12.576 30.438 14 27.794 14 25.053V18h2v7.053c0 3.39-1.74 6.644-4.654 8.705-4.564 3.228-6.945 8.699-6.212 14.278 0.865 6.584 6.272 11.981 12.858 12.833 1.311 0.172 2.706 0.171 4.015 0.001 3.544-0.459 6.826-2.22 9.243-4.958l1.499 1.324c-2.737 3.102-6.461 5.096-10.485 5.617C21.525 62.949 20.763 62.998 20 62.998z" fill="#39cccc" data-fill-palette-color="accent"></path></g><g fill="#39cccc" data-fill-palette-color="accent"><path d="M29.422 34.34c-0.25-0.202-0.505-0.396-0.768-0.582C25.74 31.696 24 28.442 24 25.053V18h2v7.053c0 2.741 1.424 5.386 3.809 7.072 0.298 0.211 0.588 0.431 0.872 0.66L29.422 34.34z" fill="#39cccc" data-fill-palette-color="accent"></path></g><g fill="#39cccc" data-fill-palette-color="accent"><path d="M25 25c-2.983 0-5.007-0.689-6.633-1.243C17.174 23.351 16.144 23 15 23v-2c1.475 0 2.708 0.42 4.012 0.864C20.576 22.396 22.348 23 25 23V25z" fill="#39cccc" data-fill-palette-color="accent"></path></g></g></svg></g></svg></g></svg></g></svg></g></svg></g><defs></defs></svg><rect width="395.52" height="94.96641232372369" fill="none" stroke="none" visibility="hidden"></rect></g></svg></g></svg>